<svg xmlns="http://www.w3.org/2000/svg" xmlns:xlink="http://www.w3.org/1999/xlink" width="500" zoomAndPan="magnify" viewBox="0 0 375 374.999991" height="500" preserveAspectRatio="xMidYMid meet" version="1.0"><defs><g/><clipPath id="8046053a49"><path d="M 265 132 L 312 132 L 312 180 L 265 180 Z M 265 132 " clip-rule="nonzero"/></clipPath><clipPath id="8b05f4e010"><path d="M 228.390625 96.140625 L 308.164062 63.351562 L 345.800781 154.917969 L 266.027344 187.707031 Z M 228.390625 96.140625 " clip-rule="nonzero"/></clipPath><clipPath id="9dc4fccff0"><path d="M 228.390625 96.140625 L 308.164062 63.351562 L 345.800781 154.917969 L 266.027344 187.707031 Z M 228.390625 96.140625 " clip-rule="nonzero"/></clipPath><clipPath id="3089d98a34"><path d="M 228.390625 96.140625 L 308.164062 63.351562 L 345.800781 154.917969 L 266.027344 187.707031 Z M 228.390625 96.140625 " clip-rule="nonzero"/></clipPath><clipPath id="10e528e12e"><path d="M 289 108 L 338 108 L 338 157 L 289 157 Z M 289 108 " clip-rule="nonzero"/></clipPath><clipPath id="dc9cc81a6b"><path d="M 228.390625 96.140625 L 308.164062 63.351562 L 345.800781 154.917969 L 266.027344 187.707031 Z M 228.390625 96.140625 " clip-rule="nonzero"/></clipPath><clipPath id="3032957a9d"><path d="M 228.390625 96.140625 L 308.164062 63.351562 L 345.800781 154.917969 L 266.027344 187.707031 Z M 228.390625 96.140625 " clip-rule="nonzero"/></clipPath><clipPath id="6549844669"><path d="M 228.390625 96.140625 L 308.164062 63.351562 L 345.800781 154.917969 L 266.027344 187.707031 Z M 228.390625 96.140625 " clip-rule="nonzero"/></clipPath><clipPath id="8e0daaf8a8"><path d="M 280.988281 122.472656 L 325.050781 104.363281 L 343.117188 148.3125 L 299.054688 166.425781 Z M 280.988281 122.472656 " clip-rule="nonzero"/></clipPath><clipPath id="4f2a67f73b"><path d="M 280.988281 122.472656 L 324.96875 104.394531 L 343.035156 148.347656 L 299.054688 166.425781 Z M 280.988281 122.472656 " clip-rule="nonzero"/></clipPath><clipPath id="3e3607bb1b"><path d="M 241 107 L 289 107 L 289 154 L 241 154 Z M 241 107 " clip-rule="nonzero"/></clipPath><clipPath id="7f11594b5e"><path d="M 228.390625 96.140625 L 308.164062 63.351562 L 345.800781 154.917969 L 266.027344 187.707031 Z M 228.390625 96.140625 " clip-rule="nonzero"/></clipPath><clipPath id="5ca6f74d97"><path d="M 228.390625 96.140625 L 308.164062 63.351562 L 345.800781 154.917969 L 266.027344 187.707031 Z M 228.390625 96.140625 " clip-rule="nonzero"/></clipPath><clipPath id="33d4ee4c86"><path d="M 228.390625 96.140625 L 308.164062 63.351562 L 345.800781 154.917969 L 266.027344 187.707031 Z M 228.390625 96.140625 " clip-rule="nonzero"/></clipPath><clipPath id="e3398db752"><path d="M 259 73 L 308 73 L 308 121 L 259 121 Z M 259 73 " clip-rule="nonzero"/></clipPath><clipPath id="1b58141af6"><path d="M 228.390625 96.140625 L 308.164062 63.351562 L 345.800781 154.917969 L 266.027344 187.707031 Z M 228.390625 96.140625 " clip-rule="nonzero"/></clipPath><clipPath id="76dadf12d0"><path d="M 228.390625 96.140625 L 308.164062 63.351562 L 345.800781 154.917969 L 266.027344 187.707031 Z M 228.390625 96.140625 " clip-rule="nonzero"/></clipPath><clipPath id="28de07e785"><path d="M 228.390625 96.140625 L 308.164062 63.351562 L 345.800781 154.917969 L 266.027344 187.707031 Z M 228.390625 96.140625 " clip-rule="nonzero"/></clipPath><clipPath id="ac2bedd70f"><path d="M 260 110 L 313 110 L 313 158 L 260 158 Z M 260 110 " clip-rule="nonzero"/></clipPath><clipPath id="ad28c7bd6f"><path d="M 228.390625 96.140625 L 308.164062 63.351562 L 345.800781 154.917969 L 266.027344 187.707031 Z M 228.390625 96.140625 " clip-rule="nonzero"/></clipPath><clipPath id="eefb9b3de6"><path d="M 228.390625 96.140625 L 308.164062 63.351562 L 345.800781 154.917969 L 266.027344 187.707031 Z M 228.390625 96.140625 " clip-rule="nonzero"/></clipPath><clipPath id="3e4174cb5a"><path d="M 228.390625 96.140625 L 308.164062 63.351562 L 345.800781 154.917969 L 266.027344 187.707031 Z M 228.390625 96.140625 " clip-rule="nonzero"/></clipPath></defs><g clip-path="url(#8046053a49)"><g clip-path="url(#8b05f4e010)"><g clip-path="url(#9dc4fccff0)"><g clip-path="url(#3089d98a34)"><path fill="#51b59f" d="M 311.90625 156.257812 C 311.910156 156.664062 311.921875 157.421875 307.675781 161.058594 C 305.835938 162.636719 303.246094 164.660156 302.015625 165.167969 C 301.78125 165.261719 301.433594 165.378906 301.070312 165.292969 C 300 165.046875 299.527344 163.671875 298.972656 162.082031 C 298.765625 161.484375 298.453125 160.578125 298.265625 160.363281 C 297.175781 159.144531 295.878906 158.796875 294.296875 159.296875 C 294.066406 159.367188 293.84375 159.449219 293.640625 159.53125 C 292.296875 160.085938 291.546875 160.863281 291.421875 161.84375 C 291.1875 163.621094 292.839844 165.785156 294.472656 167.042969 C 294.730469 167.242188 294.960938 167.414062 295.164062 167.566406 C 296.074219 168.242188 296.671875 168.6875 296.710938 169.464844 C 296.753906 170.300781 296.144531 170.851562 294.816406 172.054688 C 294.640625 172.210938 294.453125 172.382812 294.25 172.570312 C 292.84375 173.855469 291.429688 175.136719 290.015625 176.421875 C 289.285156 177.085938 287.152344 179.023438 287.152344 179.023438 L 286.539062 178.347656 C 286.125 177.886719 285.546875 177.132812 284.875 176.265625 C 283.113281 173.972656 279.449219 169.210938 277.75 169.285156 C 277.5625 169.292969 277.398438 169.328125 277.246094 169.386719 C 276.566406 169.667969 276.152344 170.589844 275.714844 171.566406 C 275.160156 172.808594 274.527344 174.21875 273.09375 174.808594 C 272.503906 175.046875 271.832031 175.125 271.089844 175.03125 C 269.953125 174.890625 268.863281 174.203125 268.109375 173.144531 C 267.359375 172.085938 267.058594 170.839844 267.292969 169.730469 C 267.664062 167.96875 268.773438 167.328125 269.578125 166.996094 C 269.925781 166.855469 270.28125 166.746094 270.625 166.640625 C 270.953125 166.542969 271.265625 166.445312 271.558594 166.324219 C 271.914062 166.179688 272.183594 166.019531 272.398438 165.824219 C 272.894531 165.375 273.125 164.933594 273.132812 164.425781 C 273.152344 162.839844 270.976562 160.746094 269.226562 159.0625 C 268.175781 158.050781 267.183594 157.09375 266.605469 156.230469 L 266.535156 156.125 C 265.757812 154.957031 265.367188 154.371094 265.386719 153.675781 C 265.40625 152.863281 265.957031 152.398438 266.789062 151.699219 C 267.085938 151.449219 267.421875 151.167969 267.820312 150.804688 C 268.300781 150.371094 268.953125 149.871094 269.640625 149.34375 C 271.160156 148.167969 273.25 146.566406 273.757812 145.328125 C 274.363281 143.863281 273.78125 143.398438 271.828125 142.34375 C 270.101562 141.40625 267.734375 140.128906 268.742188 136.929688 C 269.132812 135.703125 270.175781 134.605469 271.46875 134.074219 C 272.453125 133.671875 273.492188 133.632812 274.394531 133.972656 C 276.203125 134.648438 276.644531 136.183594 277 137.421875 C 277.207031 138.144531 277.402344 138.828125 277.832031 139.261719 C 278.199219 139.632812 278.785156 139.988281 280.089844 139.453125 C 282.320312 138.535156 285.011719 135.679688 286.976562 133.589844 C 287.703125 132.820312 287.210938 133.265625 287.703125 132.820312 L 287.925781 132.605469 C 288.78125 131.78125 290.152344 131.847656 290.929688 132.746094 C 291.316406 133.171875 291.128906 132.8125 291.867188 133.523438 C 296.007812 137.535156 299.304688 141.027344 297.722656 143.164062 C 297.289062 143.75 296.652344 144.058594 296.210938 144.238281 C 295.875 144.375 295.523438 144.492188 295.183594 144.601562 C 294.855469 144.707031 294.515625 144.816406 294.210938 144.941406 C 293.691406 145.15625 293.347656 145.386719 293.132812 145.664062 C 292.105469 147 292.140625 148.878906 293.222656 150.339844 C 294.132812 151.566406 295.695312 152.300781 297.015625 152.125 C 297.292969 152.089844 297.539062 152.027344 297.753906 151.9375 C 298.53125 151.617188 298.898438 150.953125 299.363281 150.109375 C 299.726562 149.441406 300.140625 148.6875 300.828125 148.058594 C 301.441406 147.5 301.851562 147.203125 302.253906 147.039062 C 303.53125 146.511719 304.300781 147.414062 305.199219 148.457031 C 305.40625 148.703125 305.640625 148.980469 305.917969 149.285156 C 306.15625 149.546875 306.679688 150.039062 307.289062 150.609375 C 310.46875 153.59375 311.890625 155.117188 311.90625 156.257812 " fill-opacity="1" fill-rule="nonzero"/></g></g></g></g><g clip-path="url(#10e528e12e)"><g clip-path="url(#dc9cc81a6b)"><g clip-path="url(#3032957a9d)"><g clip-path="url(#6549844669)"><g clip-path="url(#8e0daaf8a8)"><g clip-path="url(#4f2a67f73b)"><path fill="#397dc9" d="M 337.082031 133.859375 L 336.40625 134.472656 C 336.003906 134.839844 335.371094 135.332031 334.574219 135.953125 C 333.074219 137.121094 331.019531 138.71875 329.496094 140.292969 C 327.351562 142.511719 327.394531 143.503906 327.511719 143.828125 C 327.683594 144.296875 328.898438 145.085938 329.785156 145.664062 C 331.542969 146.800781 333.53125 148.089844 333.503906 149.917969 C 333.492188 151.09375 332.648438 152.167969 330.933594 153.207031 C 330.601562 153.410156 330.273438 153.574219 329.964844 153.703125 C 326.765625 155.019531 325.582031 152.175781 324.796875 150.292969 C 324.289062 149.074219 323.765625 147.816406 322.960938 147.59375 C 322.675781 147.515625 322.273438 147.578125 321.792969 147.773438 C 319.640625 148.660156 316.671875 151.855469 314.707031 153.96875 C 313.941406 154.796875 313.273438 155.507812 312.796875 155.945312 L 312.121094 156.558594 L 311.507812 155.878906 C 311.132812 155.464844 310.621094 154.804688 309.96875 153.964844 C 308.824219 152.492188 307.257812 150.46875 305.738281 148.929688 C 303.558594 146.726562 302.601562 146.628906 302.289062 146.691406 C 302.246094 146.699219 302.203125 146.714844 302.160156 146.730469 C 301.519531 146.992188 300.832031 148.160156 300.222656 149.1875 C 299.414062 150.558594 298.574219 151.976562 297.320312 152.492188 C 296.027344 153.023438 294.652344 152.484375 293.234375 150.890625 C 292.113281 149.632812 291.667969 148.503906 291.875 147.445312 C 292.195312 145.792969 293.933594 144.949219 295.617188 144.132812 C 296.753906 143.578125 298.039062 142.953125 298.222656 142.304688 C 298.722656 140.546875 296.234375 138.335938 294.039062 136.382812 C 292.191406 134.742188 290.449219 133.191406 289.949219 131.585938 L 289.777344 131.027344 L 290.207031 130.636719 C 290.652344 130.230469 291.253906 129.605469 291.953125 128.882812 C 294.007812 126.75 296.570312 124.089844 298.714844 123.210938 C 299.746094 122.785156 300.636719 122.792969 301.355469 123.234375 C 302.261719 123.785156 302.617188 124.808594 302.964844 125.796875 C 303.335938 126.867188 303.691406 127.878906 304.65625 128.273438 C 305.589844 128.652344 306.574219 128.652344 307.496094 128.273438 C 307.96875 128.082031 308.417969 127.792969 308.828125 127.414062 C 310.054688 126.289062 310.507812 124.816406 310.0625 123.375 C 309.722656 122.269531 309.070312 121.921875 308.160156 121.441406 C 307.535156 121.109375 306.824219 120.730469 306.195312 120.058594 C 305.441406 119.253906 304.984375 118.605469 305.023438 117.855469 C 305.066406 117.015625 305.6875 116.480469 306.550781 115.738281 C 306.800781 115.527344 307.082031 115.28125 307.390625 115 C 307.632812 114.78125 308.109375 114.269531 308.664062 113.675781 C 310.722656 111.472656 312.523438 109.605469 313.683594 109.128906 C 313.929688 109.03125 314.15625 108.984375 314.375 108.988281 C 315.378906 109.015625 316.570312 110.203125 319.691406 114.296875 C 320.105469 114.839844 320.460938 115.308594 320.636719 115.511719 C 320.863281 115.769531 321.109375 116.023438 321.351562 116.269531 C 322.4375 117.386719 323.925781 118.921875 322.359375 120.816406 C 322.003906 121.246094 321.539062 121.570312 320.898438 121.835938 C 320.542969 121.980469 320.171875 122.09375 319.816406 122.203125 C 319.464844 122.308594 319.132812 122.410156 318.824219 122.535156 C 318.199219 122.792969 317.824219 123.09375 317.566406 123.546875 C 316.792969 124.890625 317.078125 126.878906 318.222656 128.167969 C 319.367188 129.457031 321.242188 129.960938 322.679688 129.371094 L 322.730469 129.347656 C 323.542969 128.996094 323.945312 128.070312 324.371094 127.089844 C 324.804688 126.089844 325.25 125.058594 326.230469 124.570312 C 326.273438 124.550781 326.3125 124.53125 326.355469 124.515625 C 328.613281 123.585938 331.632812 127.105469 335.058594 131.449219 C 335.636719 132.179688 336.136719 132.8125 336.46875 133.179688 L 337.082031 133.859375 " fill-opacity="1" fill-rule="nonzero"/></g></g></g></g></g></g><g clip-path="url(#3e3607bb1b)"><g clip-path="url(#7f11594b5e)"><g clip-path="url(#5ca6f74d97)"><g clip-path="url(#33d4ee4c86)"><path fill="#f8e505" d="M 287.234375 116.070312 C 286.734375 117.53125 285.144531 118.1875 283.742188 118.765625 C 282.847656 119.136719 281.917969 119.519531 281.488281 120.019531 C 280.515625 121.152344 281.269531 122.269531 283.328125 124.335938 C 283.65625 124.667969 283.96875 124.980469 284.25 125.292969 C 284.472656 125.542969 284.929688 125.949219 285.414062 126.382812 C 287.308594 128.074219 288.65625 129.367188 288.777344 130.5625 C 288.941406 132.191406 287.550781 133.359375 286.203125 134.488281 C 285.902344 134.742188 285.59375 135 285.3125 135.257812 C 284.941406 135.59375 284.527344 136.03125 284.09375 136.496094 C 283.074219 137.574219 281.925781 138.796875 280.714844 139.363281 C 280.398438 139.511719 280.15625 139.621094 279.953125 139.703125 C 279.429688 139.917969 278.820312 140.128906 278.253906 139.875 C 277.691406 139.621094 277.5 139.089844 277.316406 138.578125 C 277.199219 138.257812 277.054688 137.855469 276.792969 137.371094 C 275.46875 134.894531 273.460938 133.917969 271.421875 134.757812 C 270.101562 135.300781 269.121094 136.496094 268.917969 137.804688 C 268.726562 139.058594 269.265625 140.261719 270.472656 141.285156 C 270.652344 141.433594 271.222656 141.664062 271.679688 141.851562 C 272.917969 142.355469 274.199219 142.875 274.421875 143.972656 C 274.691406 145.292969 273.277344 146.519531 271.539062 147.871094 C 271.289062 148.0625 271.054688 148.246094 270.941406 148.351562 C 270.558594 148.699219 270.15625 149.121094 269.726562 149.566406 C 268.738281 150.601562 267.714844 151.667969 266.566406 152.289062 C 265.964844 152.613281 265.847656 152.828125 265.796875 152.917969 C 265.734375 153.027344 265.59375 153.28125 265.277344 153.414062 C 264.699219 153.648438 264.28125 153.257812 264.082031 153.070312 C 263.902344 152.902344 263.566406 152.585938 262.878906 152.078125 C 262.140625 151.527344 261.523438 150.761719 260.929688 150.019531 C 260.664062 149.691406 260.417969 149.382812 260.179688 149.117188 C 260.027344 148.949219 259.707031 148.644531 259.335938 148.296875 C 256.960938 146.054688 255.851562 144.792969 255.988281 143.683594 C 256.152344 142.332031 257.417969 141.808594 257.832031 141.640625 C 258.160156 141.503906 258.507812 141.394531 258.839844 141.285156 C 259.164062 141.179688 259.46875 141.082031 259.746094 140.96875 C 260.003906 140.863281 260.199219 140.757812 260.339844 140.648438 C 261.542969 139.746094 262.136719 138.34375 261.933594 136.902344 C 261.726562 135.449219 260.738281 134.246094 259.289062 133.691406 C 258.332031 133.320312 257.476562 133.300781 256.675781 133.628906 C 256.101562 133.863281 255.550781 134.285156 255.03125 134.878906 C 254.875 135.054688 254.613281 135.710938 254.425781 136.191406 C 253.953125 137.378906 253.507812 138.503906 252.648438 138.859375 L 252.59375 138.878906 C 250.886719 139.503906 248.390625 136.867188 243.773438 131.101562 C 243.230469 130.425781 242.761719 129.839844 242.523438 129.570312 L 241.910156 128.894531 L 242.582031 128.28125 C 243.324219 127.605469 244.316406 126.851562 245.363281 126.050781 C 247.613281 124.335938 250.417969 122.199219 251.210938 120.398438 C 251.574219 119.570312 251.691406 118.988281 251.546875 118.714844 C 251.402344 118.445312 250.90625 118.183594 250.328125 117.882812 C 249.765625 117.585938 249.070312 117.222656 248.371094 116.675781 C 246.972656 115.585938 246.25 113.816406 246.480469 112.066406 C 246.679688 110.582031 247.527344 109.429688 248.804688 108.902344 C 249.507812 108.613281 250.308594 108.53125 251.183594 108.652344 C 253.53125 108.984375 254.230469 110.941406 254.796875 112.515625 C 255.359375 114.085938 255.699219 114.785156 256.601562 114.894531 C 256.820312 114.917969 257.09375 114.863281 257.417969 114.730469 C 258.949219 114.101562 260.867188 112.046875 262.265625 110.546875 C 262.816406 109.957031 263.289062 109.449219 263.667969 109.105469 C 264.007812 108.792969 264.277344 108.519531 264.515625 108.28125 C 265 107.792969 265.347656 107.441406 265.824219 107.246094 C 266.691406 106.890625 267.535156 107.28125 268.320312 107.710938 C 269.625 108.429688 270.828125 110.007812 271.890625 111.40625 C 272.347656 112.007812 272.777344 112.574219 273.160156 112.992188 C 273.382812 113.242188 273.605469 113.5 273.832031 113.761719 C 275.199219 115.347656 276.171875 116.355469 277.164062 115.945312 C 277.417969 115.84375 277.6875 115.652344 277.96875 115.382812 C 278.3125 115.058594 278.507812 114.484375 278.714844 113.875 C 279.019531 112.992188 279.359375 111.988281 280.277344 111.320312 C 280.558594 111.113281 280.863281 110.941406 281.183594 110.8125 C 283.203125 109.980469 285.554688 110.824219 286.648438 112.773438 C 287.367188 114.046875 287.558594 115.125 287.234375 116.070312 " fill-opacity="1" fill-rule="nonzero"/></g></g></g></g><g clip-path="url(#e3398db752)"><g clip-path="url(#1b58141af6)"><g clip-path="url(#76dadf12d0)"><g clip-path="url(#28de07e785)"><path fill="#ef3220" d="M 302.074219 89.402344 C 302.5 90.324219 301.898438 91.332031 301.519531 91.859375 C 301.425781 93.367188 300.773438 94.90625 300.140625 96.394531 C 299.742188 97.332031 299.367188 98.21875 299.164062 99.015625 C 298.554688 101.40625 298.796875 101.96875 298.886719 102.082031 C 299.046875 102.289062 299.851562 102.289062 300.5625 102.292969 C 301.480469 102.296875 302.625 102.296875 303.871094 102.617188 C 305.742188 103.097656 306.992188 104.589844 307.132812 106.515625 C 307.277344 108.496094 306.214844 110.359375 304.546875 111.042969 C 303.832031 111.339844 303.050781 111.410156 302.21875 111.257812 C 300.691406 110.980469 299.609375 110.03125 298.742188 109.269531 C 297.871094 108.503906 297.453125 108.1875 297.078125 108.339844 C 296.839844 108.4375 296.433594 108.738281 295.828125 109.621094 C 294.984375 110.851562 294.484375 112.917969 294.039062 114.746094 C 293.824219 115.640625 293.617188 116.484375 293.378906 117.230469 C 292.785156 119.085938 292.371094 120.246094 291.386719 120.648438 C 290.578125 120.984375 289.761719 120.695312 288.410156 120.222656 C 288.027344 120.089844 287.59375 119.933594 287.097656 119.773438 C 286.765625 119.667969 286.195312 119.539062 285.535156 119.386719 C 282.878906 118.785156 280.785156 118.238281 279.941406 117.195312 C 278.507812 115.417969 279.609375 114.359375 280.265625 113.726562 C 280.582031 113.425781 280.90625 113.109375 281.140625 112.6875 C 282.046875 111.042969 282.113281 109.128906 281.3125 107.8125 C 280.636719 106.699219 279.425781 106.132812 277.816406 106.175781 C 277.183594 106.191406 276.636719 106.292969 276.183594 106.480469 C 273.960938 107.394531 274.039062 110.410156 274.355469 113.964844 L 274.496094 115.574219 L 259.808594 110.96875 L 260.085938 110.089844 C 260.207031 109.714844 260.390625 108.964844 260.609375 108.09375 C 262.125 101.976562 263.25 98.539062 264.84375 97.882812 C 265.023438 97.8125 265.207031 97.773438 265.386719 97.765625 C 266.476562 97.726562 267.375 98.601562 268.246094 99.445312 C 268.875 100.058594 269.589844 100.75 270.152344 100.847656 C 270.980469 100.988281 271.730469 100.925781 272.382812 100.65625 C 272.902344 100.441406 273.378906 100.09375 273.796875 99.613281 C 274.894531 98.359375 275.222656 97.039062 274.746094 95.800781 C 274.160156 94.285156 272.4375 93.109375 270.453125 92.871094 C 269.742188 92.789062 269.167969 92.78125 268.710938 92.773438 C 267.902344 92.765625 267.203125 92.753906 266.753906 92.171875 C 266.226562 91.488281 266.445312 90.59375 266.917969 88.632812 C 266.996094 88.316406 267.078125 87.949219 267.167969 87.554688 C 267.621094 85.550781 268.230469 82.847656 269.214844 81.308594 C 269.230469 80.601562 269.375 79.292969 270.449219 78.855469 C 271.480469 78.429688 272.632812 79.191406 273.140625 79.5625 C 274.421875 79.976562 275.703125 80.390625 276.984375 80.804688 C 277.394531 80.9375 277.898438 81.144531 278.484375 81.386719 C 279.859375 81.953125 282.164062 82.898438 283.078125 82.589844 C 283.132812 82.570312 283.183594 82.550781 283.230469 82.53125 C 284.21875 82.125 284.257812 81.332031 284.121094 79.476562 C 283.992188 77.691406 283.808594 75.246094 286.4375 74.164062 L 286.523438 74.128906 C 287.691406 73.675781 289.132812 73.804688 290.375 74.476562 C 291.539062 75.109375 292.351562 76.125 292.597656 77.269531 C 293.015625 79.207031 291.96875 80.355469 291.125 81.277344 C 290.742188 81.699219 290.378906 82.09375 290.148438 82.542969 C 289.753906 83.328125 289.664062 83.933594 289.871094 84.402344 C 290.375 85.519531 292.671875 86.117188 294.519531 86.597656 C 295.179688 86.769531 295.808594 86.929688 296.378906 87.117188 C 297.578125 87.503906 298.785156 87.890625 299.988281 88.285156 C 301.070312 88.367188 301.769531 88.738281 302.074219 89.402344 " fill-opacity="1" fill-rule="nonzero"/></g></g></g></g><g clip-path="url(#ac2bedd70f)"><g clip-path="url(#ad28c7bd6f)"><g clip-path="url(#eefb9b3de6)"><g clip-path="url(#3e4174cb5a)"><path fill="#110f0d" d="M 274.328125 116.121094 C 274.460938 116.160156 274.59375 116.152344 274.714844 116.105469 C 274.863281 116.042969 274.988281 115.914062 275.039062 115.746094 C 275.132812 115.445312 274.964844 115.125 274.664062 115.03125 L 261.566406 110.921875 C 261.269531 110.828125 260.949219 110.996094 260.855469 111.296875 C 260.765625 111.597656 260.933594 111.917969 261.234375 112.011719 Z M 312.503906 156.984375 C 312.453125 157.027344 312.398438 157.0625 312.339844 157.089844 C 312.125 157.175781 311.867188 157.125 311.699219 156.941406 L 311.085938 156.261719 C 310.695312 155.828125 310.179688 155.160156 309.523438 154.316406 C 308.386719 152.851562 306.832031 150.847656 305.332031 149.332031 C 303.175781 147.144531 302.410156 147.25 302.402344 147.253906 C 302.394531 147.253906 302.386719 147.257812 302.378906 147.261719 C 301.914062 147.453125 301.191406 148.671875 300.714844 149.480469 C 299.855469 150.933594 298.96875 152.433594 297.539062 153.019531 C 296.480469 153.457031 294.800781 153.503906 292.8125 151.269531 C 291.5625 149.867188 291.074219 148.582031 291.316406 147.332031 C 291.691406 145.402344 293.644531 144.453125 295.367188 143.617188 C 296.132812 143.242188 297.5625 142.550781 297.675781 142.144531 C 298.078125 140.734375 295.628906 138.558594 293.664062 136.8125 C 292.257812 135.5625 290.925781 134.375 290.09375 133.136719 L 289.726562 133.25 C 288.277344 133.695312 286.792969 135.386719 285.222656 137.171875 C 283.175781 139.496094 280.859375 142.128906 278.757812 141.519531 C 277.867188 141.257812 277.238281 139.964844 276.574219 138.59375 C 275.8125 137.027344 275.027344 135.40625 273.660156 135.132812 C 272.792969 134.960938 271.828125 135.359375 270.722656 136.351562 C 269.339844 137.589844 268.859375 138.753906 269.292969 139.804688 C 269.738281 140.890625 271.070312 141.6875 272.355469 142.457031 C 273.515625 143.152344 274.710938 143.867188 275.046875 144.6875 C 275.082031 144.765625 275.105469 144.847656 275.121094 144.925781 C 275.296875 145.816406 274.5 147.152344 272.75 148.894531 C 271.195312 150.4375 269.175781 152.015625 267.699219 153.167969 C 266.878906 153.808594 266.230469 154.316406 265.832031 154.679688 L 265.15625 155.292969 C 265.109375 155.335938 265.050781 155.371094 264.992188 155.394531 C 264.777344 155.484375 264.519531 155.433594 264.355469 155.25 C 264.140625 155.015625 264.160156 154.652344 264.390625 154.441406 L 265.066406 153.828125 C 265.496094 153.4375 266.160156 152.921875 267 152.265625 C 268.449219 151.132812 270.441406 149.578125 271.945312 148.078125 C 274.113281 145.921875 274.003906 145.152344 274.003906 145.144531 C 274.003906 145.136719 274 145.128906 273.996094 145.121094 C 273.804688 144.652344 272.585938 143.921875 271.777344 143.441406 C 270.328125 142.570312 268.832031 141.675781 268.242188 140.238281 C 267.804688 139.171875 267.746094 137.488281 269.964844 135.496094 C 271.351562 134.25 272.632812 133.765625 273.878906 134.011719 C 275.800781 134.398438 276.753906 136.363281 277.597656 138.09375 C 277.972656 138.867188 278.667969 140.304688 279.070312 140.421875 C 280.480469 140.828125 282.632812 138.378906 284.367188 136.414062 C 286.046875 134.503906 287.636719 132.699219 289.390625 132.160156 L 289.941406 131.988281 C 290.101562 131.9375 290.265625 131.964844 290.398438 132.042969 C 290.597656 132.03125 290.800781 132.125 290.914062 132.3125 C 291.640625 133.488281 292.988281 134.6875 294.414062 135.957031 C 296.738281 138.019531 299.371094 140.359375 298.769531 142.464844 C 298.515625 143.355469 297.230469 143.984375 295.867188 144.644531 C 294.308594 145.402344 292.699219 146.183594 292.433594 147.558594 C 292.265625 148.429688 292.664062 149.394531 293.65625 150.511719 C 294.898438 151.902344 296.058594 152.390625 297.105469 151.960938 C 298.183594 151.519531 298.96875 150.183594 299.734375 148.894531 C 300.417969 147.734375 301.128906 146.535156 301.941406 146.203125 C 302.019531 146.167969 302.101562 146.144531 302.179688 146.128906 C 303.066406 145.957031 304.398438 146.761719 306.140625 148.527344 C 307.683594 150.09375 309.265625 152.128906 310.417969 153.617188 C 311.058594 154.441406 311.566406 155.09375 311.929688 155.496094 L 312.542969 156.175781 C 312.753906 156.410156 312.738281 156.773438 312.503906 156.984375 " fill-opacity="1" fill-rule="nonzero"/></g></g></g></g><g fill="#ffffff" fill-opacity="1"><g transform="translate(2.341428, 220.124986)"><g><path d="M 13.671875 -28.859375 L 36.28125 -28.859375 C 36.65625 -28.734375 37.035156 -28.609375 37.421875 -28.484375 C 37.921875 -28.359375 38.425781 -28.234375 38.9375 -28.109375 C 40.207031 -27.722656 41.347656 -27.148438 42.359375 -26.390625 C 45.015625 -24.492188 46.28125 -21.835938 46.15625 -18.421875 C 46.03125 -15.503906 45.332031 -13.351562 44.0625 -11.96875 C 43.050781 -10.945312 41.847656 -10.125 40.453125 -9.5 C 38.929688 -8.863281 37.347656 -8.609375 35.703125 -8.734375 L 13.671875 -8.734375 Z M 13.671875 -57.359375 L 27.734375 -57.359375 C 27.859375 -57.359375 27.984375 -57.359375 28.109375 -57.359375 C 28.492188 -57.222656 28.875 -57.15625 29.25 -57.15625 C 30.394531 -56.90625 31.34375 -56.53125 32.09375 -56.03125 C 34.882812 -54.507812 36.34375 -51.910156 36.46875 -48.234375 C 36.46875 -45.328125 35.644531 -42.984375 34 -41.203125 C 32.988281 -40.066406 31.785156 -39.179688 30.390625 -38.546875 C 28.992188 -37.785156 27.539062 -37.40625 26.03125 -37.40625 L 13.671875 -37.40625 Z M 5.703125 -4.375 C 5.703125 -3.101562 6.082031 -2.085938 6.84375 -1.328125 C 7.601562 -0.441406 8.550781 0 9.6875 0 L 37.609375 0 C 37.984375 0 38.363281 -0.0625 38.75 -0.1875 C 43.4375 -0.820312 47.171875 -2.660156 49.953125 -5.703125 C 52.992188 -9.242188 54.453125 -13.609375 54.328125 -18.796875 C 54.066406 -24.242188 52.546875 -28.613281 49.765625 -31.90625 C 47.609375 -34.4375 44.882812 -36.144531 41.59375 -37.03125 C 43.75 -40.320312 44.765625 -44.1875 44.640625 -48.625 C 44.378906 -54.445312 42.289062 -58.9375 38.375 -62.09375 C 35.207031 -64.757812 31.597656 -66.09375 27.546875 -66.09375 L 27.546875 -65.90625 L 9.6875 -65.90625 C 8.550781 -65.90625 7.601562 -65.523438 6.84375 -64.765625 C 6.082031 -63.878906 5.703125 -62.863281 5.703125 -61.71875 C 5.703125 -61.46875 5.703125 -61.21875 5.703125 -60.96875 L 5.703125 -5.125 C 5.703125 -4.75 5.703125 -4.5 5.703125 -4.375 Z M 5.703125 -4.375 "/></g></g></g><g fill="#ffffff" fill-opacity="1"><g transform="translate(60.831628, 220.124986)"><g><path d="M 15.953125 -18.984375 L 16.328125 -23.359375 L 17.28125 -28.296875 C 18.675781 -31.960938 21.398438 -34.113281 25.453125 -34.75 L 28.296875 -34.75 C 30.066406 -34.375 31.394531 -33.363281 32.28125 -31.71875 L 33.234375 -29.625 L 33.8125 -27.15625 L 34.1875 -22.21875 L 33.8125 -17.65625 L 32.859375 -12.90625 C 31.460938 -9.238281 28.738281 -7.085938 24.6875 -6.453125 C 23.675781 -6.328125 22.664062 -6.457031 21.65625 -6.84375 C 18.863281 -7.59375 17.085938 -9.929688 16.328125 -13.859375 Z M 28.875 -0.765625 C 32.664062 -1.648438 35.890625 -3.738281 38.546875 -7.03125 C 41.835938 -10.945312 43.675781 -15.945312 44.0625 -22.03125 L 43.875 -26.78125 C 43.363281 -31.332031 41.398438 -34.941406 37.984375 -37.609375 C 35.066406 -39.878906 31.710938 -41.015625 27.921875 -41.015625 L 26.96875 -41.203125 L 25.453125 -41.015625 C 23.804688 -41.015625 22.410156 -40.828125 21.265625 -40.453125 C 17.472656 -39.304688 14.25 -37.15625 11.59375 -34 C 8.300781 -30.070312 6.460938 -25.132812 6.078125 -19.1875 L 6.265625 -14.4375 C 6.648438 -9.875 8.613281 -6.265625 12.15625 -3.609375 C 15.070312 -1.328125 18.425781 -0.125 22.21875 0 C 24.25 0.125 26.46875 -0.128906 28.875 -0.765625 Z M 28.875 -0.765625 "/></g></g></g><g fill="#ffffff" fill-opacity="1"><g transform="translate(112.105504, 220.124986)"><g><path d="M 14.25 -17.09375 C 15.632812 -18.988281 17.785156 -20.507812 20.703125 -21.65625 C 22.984375 -22.414062 25.328125 -22.796875 27.734375 -22.796875 C 27.984375 -22.921875 28.171875 -22.347656 28.296875 -21.078125 L 28.875 -17.09375 L 28.671875 -12.90625 C 28.171875 -9.75 26.398438 -7.597656 23.359375 -6.453125 L 20.703125 -6.265625 C 17.785156 -6.648438 15.632812 -8.109375 14.25 -10.640625 C 12.976562 -13.171875 12.976562 -15.320312 14.25 -17.09375 Z M 6.078125 -12.34375 C 6.203125 -9.300781 7.40625 -6.644531 9.6875 -4.375 L 12.15625 -2.28125 L 13.296875 -1.515625 C 16.078125 -0.128906 19.242188 0.3125 22.796875 -0.1875 L 25.078125 -0.765625 L 28.484375 -2.09375 L 31.90625 -4.375 L 33.609375 -1.703125 C 34.503906 -0.941406 35.773438 -0.816406 37.421875 -1.328125 C 42.097656 -2.460938 43.742188 -4.742188 42.359375 -8.171875 L 41.59375 -7.96875 C 41.59375 -7.082031 41.210938 -6.195312 40.453125 -5.3125 C 39.691406 -4.300781 38.992188 -4.050781 38.359375 -4.5625 L 37.03125 -7.40625 L 36.28125 -11.390625 C 36.90625 -14.179688 36.90625 -17.789062 36.28125 -22.21875 C 34.125 -36.78125 27.984375 -42.921875 17.859375 -40.640625 C 12.035156 -39.242188 8.867188 -36.394531 8.359375 -32.09375 L 8.359375 -30.203125 C 8.734375 -27.921875 10 -26.96875 12.15625 -27.34375 C 14.4375 -27.601562 15.382812 -28.867188 15 -31.140625 C 14.875 -32.535156 14.113281 -33.488281 12.71875 -34 C 13.988281 -36.019531 16.460938 -36.332031 20.140625 -34.9375 C 24.054688 -33.550781 26.269531 -30.894531 26.78125 -26.96875 L 24.5 -26.78125 L 21.65625 -26.390625 L 14.625 -24.875 C 8.800781 -22.726562 5.953125 -18.550781 6.078125 -12.34375 Z M 6.078125 -12.34375 "/></g></g></g><g fill="#ffffff" fill-opacity="1"><g transform="translate(157.872186, 220.124986)"><g><path d="M 23.171875 -32.28125 C 23.804688 -31.644531 24.566406 -31.328125 25.453125 -31.328125 C 27.859375 -31.328125 29.0625 -32.597656 29.0625 -35.140625 C 29.0625 -37.160156 28.171875 -38.425781 26.390625 -38.9375 C 24.742188 -39.5625 23.097656 -39.941406 21.453125 -40.078125 C 19.429688 -40.078125 17.597656 -39.820312 15.953125 -39.3125 C 14.679688 -38.925781 13.601562 -38.421875 12.71875 -37.796875 C 12.082031 -39.816406 10.753906 -40.828125 8.734375 -40.828125 C 5.953125 -40.828125 4.5625 -39.375 4.5625 -36.46875 L 4.5625 -4.375 C 4.5625 -1.457031 5.953125 0 8.734375 0 C 11.390625 0 12.78125 -1.457031 12.90625 -4.375 L 12.90625 -30.203125 C 16.070312 -33.109375 19.050781 -33.992188 21.84375 -32.859375 Z M 23.171875 -32.28125 "/></g></g></g><g fill="#ffffff" fill-opacity="1"><g transform="translate(192.434577, 220.124986)"><g><path d="M 22.796875 -32.09375 C 24.816406 -32.21875 26.394531 -31.773438 27.53125 -30.765625 L 28.859375 -29.25 L 29.4375 -27.734375 L 29.4375 -11.78125 C 28.550781 -10.257812 26.96875 -8.988281 24.6875 -7.96875 C 22.28125 -6.957031 20.253906 -6.769531 18.609375 -7.40625 C 16.078125 -8.289062 14.554688 -10.191406 14.046875 -13.109375 L 13.671875 -17.65625 L 14.046875 -21.84375 C 14.179688 -23.613281 14.5 -25.128906 15 -26.390625 C 16.269531 -29.816406 18.867188 -31.71875 22.796875 -32.09375 Z M 18.984375 -0.5625 C 22.023438 -0.4375 24.5625 -0.882812 26.59375 -1.90625 L 28.671875 -3.03125 L 29.4375 -3.984375 C 29.6875 -1.328125 31.140625 0 33.796875 0 C 36.710938 0 38.171875 -1.457031 38.171875 -4.375 L 38.171875 -61.90625 C 38.171875 -64.820312 36.710938 -66.28125 33.796875 -66.28125 C 31.015625 -66.28125 29.5625 -64.882812 29.4375 -62.09375 L 29.4375 -36.84375 L 27.15625 -37.40625 L 24.3125 -37.796875 C 22.03125 -37.921875 20.003906 -37.726562 18.234375 -37.21875 C 14.941406 -36.207031 12.15625 -34.179688 9.875 -31.140625 C 7.21875 -27.722656 5.695312 -23.296875 5.3125 -17.859375 L 5.5 -13.484375 C 5.882812 -9.304688 7.53125 -6.015625 10.4375 -3.609375 C 12.84375 -1.578125 15.691406 -0.5625 18.984375 -0.5625 Z M 18.984375 -0.5625 "/></g></g></g><g fill="#ffffff" fill-opacity="1"><g transform="translate(234.972904, 220.124986)"><g><path d="M 24.125 -34.5625 C 25.644531 -34.1875 26.847656 -33.363281 27.734375 -32.09375 C 28.367188 -31.207031 28.9375 -29.878906 29.4375 -28.109375 C 30.457031 -23.296875 29.128906 -20.765625 25.453125 -20.515625 C 22.410156 -20.128906 19.6875 -20.316406 17.28125 -21.078125 L 14.8125 -22.21875 L 13.484375 -23.171875 C 13.609375 -26.210938 14.117188 -28.554688 15.015625 -30.203125 C 16.273438 -32.597656 18.363281 -34.050781 21.28125 -34.5625 Z M 20.703125 0 C 22.472656 0.125 24.5 -0.128906 26.78125 -0.765625 C 30.707031 -1.773438 33.875 -4.242188 36.28125 -8.171875 C 37.039062 -9.554688 36.914062 -10.628906 35.90625 -11.390625 C 34.882812 -12.148438 33.804688 -11.898438 32.671875 -10.640625 C 31.148438 -8.109375 27.734375 -6.710938 22.421875 -6.453125 C 21.398438 -6.328125 20.445312 -6.390625 19.5625 -6.640625 C 17.03125 -7.398438 15.257812 -9.804688 14.25 -13.859375 L 13.671875 -17.09375 L 15.953125 -16.71875 L 19.375 -16.328125 C 22.539062 -15.953125 25.390625 -15.890625 27.921875 -16.140625 C 35.265625 -16.898438 38.9375 -19.941406 38.9375 -25.265625 L 38.9375 -25.453125 C 38.9375 -26.972656 38.8125 -28.238281 38.5625 -29.25 C 37.675781 -33.039062 35.648438 -36.015625 32.484375 -38.171875 C 29.691406 -39.941406 26.585938 -40.828125 23.171875 -40.828125 L 20.890625 -40.828125 C 19.503906 -40.703125 18.238281 -40.515625 17.09375 -40.265625 C 13.550781 -39.117188 10.640625 -36.960938 8.359375 -33.796875 C 5.578125 -29.878906 4.1875 -24.941406 4.1875 -18.984375 L 4.75 -14.25 C 5.382812 -9.6875 7.410156 -6.140625 10.828125 -3.609375 C 13.742188 -1.328125 17.035156 -0.125 20.703125 0 Z M 20.703125 0 "/></g></g></g><g fill="#ffffff" fill-opacity="1"><g transform="translate(278.650651, 220.124986)"><g><path d="M 14.25 -17.09375 C 15.632812 -18.988281 17.785156 -20.507812 20.703125 -21.65625 C 22.984375 -22.414062 25.328125 -22.796875 27.734375 -22.796875 C 27.984375 -22.921875 28.171875 -22.347656 28.296875 -21.078125 L 28.875 -17.09375 L 28.671875 -12.90625 C 28.171875 -9.75 26.398438 -7.597656 23.359375 -6.453125 L 20.703125 -6.265625 C 17.785156 -6.648438 15.632812 -8.109375 14.25 -10.640625 C 12.976562 -13.171875 12.976562 -15.320312 14.25 -17.09375 Z M 6.078125 -12.34375 C 6.203125 -9.300781 7.40625 -6.644531 9.6875 -4.375 L 12.15625 -2.28125 L 13.296875 -1.515625 C 16.078125 -0.128906 19.242188 0.3125 22.796875 -0.1875 L 25.078125 -0.765625 L 28.484375 -2.09375 L 31.90625 -4.375 L 33.609375 -1.703125 C 34.503906 -0.941406 35.773438 -0.816406 37.421875 -1.328125 C 42.097656 -2.460938 43.742188 -4.742188 42.359375 -8.171875 L 41.59375 -7.96875 C 41.59375 -7.082031 41.210938 -6.195312 40.453125 -5.3125 C 39.691406 -4.300781 38.992188 -4.050781 38.359375 -4.5625 L 37.03125 -7.40625 L 36.28125 -11.390625 C 36.90625 -14.179688 36.90625 -17.789062 36.28125 -22.21875 C 34.125 -36.78125 27.984375 -42.921875 17.859375 -40.640625 C 12.035156 -39.242188 8.867188 -36.394531 8.359375 -32.09375 L 8.359375 -30.203125 C 8.734375 -27.921875 10 -26.96875 12.15625 -27.34375 C 14.4375 -27.601562 15.382812 -28.867188 15 -31.140625 C 14.875 -32.535156 14.113281 -33.488281 12.71875 -34 C 13.988281 -36.019531 16.460938 -36.332031 20.140625 -34.9375 C 24.054688 -33.550781 26.269531 -30.894531 26.78125 -26.96875 L 24.5 -26.78125 L 21.65625 -26.390625 L 14.625 -24.875 C 8.800781 -22.726562 5.953125 -18.550781 6.078125 -12.34375 Z M 6.078125 -12.34375 "/></g></g></g><g fill="#ffffff" fill-opacity="1"><g transform="translate(324.417333, 220.124986)"><g><path d="M 41.78125 -5.3125 C 39.113281 -4.175781 37.273438 -4.050781 36.265625 -4.9375 L 35.5 -6.453125 L 35.3125 -7.78125 C 35.1875 -10.570312 35.1875 -14.179688 35.3125 -18.609375 L 35.125 -18.609375 L 35.125 -36.65625 C 35.125 -39.5625 33.671875 -41.015625 30.765625 -41.015625 C 27.847656 -41.015625 26.328125 -39.625 26.203125 -36.84375 L 26.203125 -12.53125 C 24.046875 -8.476562 20.878906 -7.085938 16.703125 -8.359375 C 13.660156 -9.242188 12.140625 -13.359375 12.140625 -20.703125 L 11.953125 -37.03125 C 11.953125 -39.4375 10.75 -40.640625 8.34375 -40.640625 C 6.070312 -40.640625 4.867188 -39.4375 4.734375 -37.03125 L 4.734375 -20.703125 C 3.085938 -8.546875 7.203125 -2.148438 17.078125 -1.515625 C 19.234375 -1.390625 21.453125 -1.769531 23.734375 -2.65625 L 26.203125 -3.796875 L 27.90625 -4.9375 C 28.03125 -3.925781 28.472656 -2.914062 29.234375 -1.90625 C 30.253906 -0.757812 31.835938 -0.125 33.984375 0 C 36.515625 0.125 39.425781 -0.507812 42.71875 -1.90625 L 42.90625 -1.90625 C 44.050781 -2.15625 44.5 -2.847656 44.25 -3.984375 C 43.988281 -5.128906 43.289062 -5.570312 42.15625 -5.3125 Z M 41.78125 -5.3125 "/></g></g></g></svg>